<?xml version="1.0" encoding="utf-8"?>
<!-- Generator: Adobe Illustrator 16.2.1, SVG Export Plug-In . SVG Version: 6.00 Build 0)  -->
<!DOCTYPE svg PUBLIC "-//W3C//DTD SVG 1.1//EN" "http://www.w3.org/Graphics/SVG/1.1/DTD/svg11.dtd">
<svg version="1.1" xmlns="http://www.w3.org/2000/svg" xmlns:xlink="http://www.w3.org/1999/xlink" x="0px" y="0px" width="1304px"
	 height="746.283px" viewBox="0 0 1304 746.283" enable-background="new 0 0 1304 746.283" xml:space="preserve">
<g id="Layer_2_1_" display="none">
	
		<rect x="-194.765" y="-164.593" display="inline" fill="#6DBE45" stroke="#000000" stroke-miterlimit="10" width="2661.267" height="1497.149"/>
</g>
<g id="Layer_1">
	<g>
		<path fill="#FFFFFF" d="M142.208-0.375C62.561-0.375-2.007,64.193-2.007,143.841c0,79.646,64.568,144.215,144.216,144.215
			C164,278.142,191.5,262.718,191.5,262.718l74.117-80.077c0,0,11.383-20.358,20.806-38.801
			C286.423,64.193,221.854-0.375,142.208-0.375z M142.208,246.852c-56.893,0-103.011-46.118-103.011-103.011
			c0-56.893,46.118-103.01,103.011-103.01c56.888,0,103.01,46.118,103.01,103.01C245.218,200.734,199.096,246.852,142.208,246.852z"
			/>
		<path fill="#FFFFFF" d="M142.208,82.033c-34.136,0-61.807,27.672-61.807,61.808c0,34.136,27.67,61.806,61.807,61.806
			s61.807-27.669,61.807-61.806C204.015,109.705,176.345,82.033,142.208,82.033z M142.213,164.443
			c-11.376,0-20.603-9.228-20.603-20.602c0-11.377,9.227-20.602,20.603-20.602c11.379,0,20.602,9.225,20.602,20.602
			C162.814,155.215,153.592,164.443,142.213,164.443z"/>
	</g>
	<g id="Layer_2" display="none">
		<rect x="-870" y="-521.717" display="inline" fill="#7AC943" width="2907" height="1914"/>
	</g>
	<rect x="564" y="0.283" fill="#343434" width="740" height="162"/>
	<rect x="564" y="186.283" fill="#343434" width="475" height="162"/>
	<rect y="560.283" fill="#FFFFFF" width="1304" height="24"/>
	<rect y="722.283" fill="#FFFFFF" width="1304" height="24"/>
	<rect x="563" y="373.283" fill="#FFFFFF" width="304" height="161"/>
	<g>
		<path fill="#FFFFFF" d="M651.558,95.029c0,3.711-0.419,7.203-1.256,10.477c-0.838,3.274-2.291,6.13-4.364,8.567
			c-2.072,2.437-4.875,4.365-8.403,5.784c-3.529,1.418-7.985,2.127-13.367,2.127c-4.949,0-9.205-0.599-12.769-1.8
			c-3.566-1.201-6.515-2.601-8.841-4.201l5.676-13.205c2.107,1.238,4.364,2.329,6.766,3.273c2.4,0.947,5.02,1.418,7.856,1.418
			c4.146,0,7.13-1.019,8.948-3.056c1.818-2.036,2.729-5.456,2.729-10.258V44.829h17.022L651.558,95.029L651.558,95.029z"/>
		<path fill="#FFFFFF" d="M737.225,82.588c0,6.476-0.965,12.168-2.893,17.079s-4.567,9.022-7.912,12.332
			c-3.347,3.312-7.33,5.803-11.949,7.476c-4.622,1.673-9.587,2.509-14.896,2.509c-5.166,0-10.039-0.836-14.622-2.509
			c-4.585-1.672-8.586-4.163-12.005-7.476c-3.421-3.31-6.111-7.421-8.074-12.332c-1.965-4.911-2.948-10.604-2.948-17.079
			c0-6.474,1.021-12.168,3.058-17.079c2.033-4.911,4.781-9.039,8.237-12.386c3.455-3.346,7.458-5.856,12.005-7.53
			c4.548-1.673,9.331-2.51,14.352-2.51c5.166,0,10.041,0.837,14.624,2.51c4.583,1.674,8.584,4.184,12.005,7.53
			c3.419,3.347,6.11,7.476,8.075,12.386C736.244,70.419,737.225,76.114,737.225,82.588z M679.494,82.588
			c0,3.711,0.453,7.058,1.365,10.041c0.906,2.984,2.217,5.548,3.927,7.693c1.709,2.146,3.802,3.803,6.273,4.965
			c2.475,1.164,5.312,1.747,8.514,1.747c3.127,0,5.948-0.583,8.459-1.747c2.51-1.163,4.618-2.819,6.328-4.965
			c1.709-2.146,3.018-4.709,3.93-7.693c0.909-2.983,1.364-6.329,1.364-10.041c0-3.71-0.455-7.075-1.364-10.095
			c-0.912-3.018-2.221-5.601-3.93-7.748c-1.71-2.146-3.818-3.802-6.328-4.966c-2.511-1.163-5.332-1.746-8.459-1.746
			c-3.202,0-6.039,0.601-8.514,1.801c-2.474,1.2-4.564,2.875-6.273,5.02c-1.71,2.146-3.021,4.73-3.927,7.748
			C679.947,75.623,679.494,78.951,679.494,82.588z"/>
		<path fill="#FFFFFF" d="M820.708,82.588c0,6.476-0.965,12.168-2.892,17.079c-1.931,4.911-4.567,9.022-7.912,12.332
			c-3.35,3.312-7.33,5.803-11.95,7.476c-4.622,1.673-9.586,2.509-14.896,2.509c-5.167,0-10.039-0.836-14.622-2.509
			c-4.585-1.672-8.587-4.163-12.005-7.476c-3.422-3.31-6.11-7.421-8.075-12.332s-2.946-10.604-2.946-17.079
			c0-6.474,1.018-12.168,3.057-17.079c2.035-4.911,4.782-9.039,8.239-12.386c3.454-3.346,7.457-5.856,12.004-7.53
			c4.546-1.673,9.331-2.51,14.351-2.51c5.165,0,10.041,0.837,14.623,2.51c4.584,1.674,8.587,4.184,12.007,7.53
			c3.418,3.347,6.109,7.476,8.074,12.386C819.727,70.42,820.708,76.114,820.708,82.588z M762.979,82.588
			c0,3.711,0.452,7.058,1.363,10.041c0.909,2.984,2.219,5.548,3.93,7.693c1.707,2.146,3.803,3.803,6.274,4.965
			c2.472,1.164,5.312,1.747,8.512,1.747c3.128,0,5.948-0.583,8.458-1.747c2.512-1.163,4.619-2.819,6.328-4.965
			c1.709-2.146,3.021-4.709,3.933-7.693c0.907-2.983,1.361-6.329,1.361-10.041c0-3.71-0.455-7.075-1.361-10.095
			c-0.912-3.018-2.224-5.601-3.933-7.748c-1.709-2.146-3.816-3.802-6.328-4.966c-2.51-1.163-5.33-1.746-8.458-1.746
			c-3.2,0-6.04,0.601-8.512,1.801c-2.474,1.2-4.567,2.875-6.274,5.02c-1.711,2.146-3.021,4.73-3.93,7.748
			C763.431,75.623,762.979,78.951,762.979,82.588z"/>
		<path fill="#FFFFFF" d="M852.246,44.829c1.312,2.401,2.826,5.366,4.541,8.894c1.714,3.53,3.501,7.349,5.359,11.459
			c1.86,4.111,3.7,8.312,5.525,12.604c1.823,4.293,3.536,8.332,5.145,12.113c1.604-3.782,3.316-7.82,5.143-12.113
			c1.822-4.293,3.665-8.494,5.525-12.604c1.858-4.11,3.646-7.929,5.36-11.459c1.716-3.528,3.229-6.493,4.541-8.894h15.497
			c0.729,5.02,1.399,10.641,2.021,16.86c0.616,6.22,1.161,12.696,1.638,19.425c0.471,6.729,0.907,13.479,1.309,20.245
			c0.4,6.766,0.745,13.133,1.037,19.097h-16.588c-0.218-7.347-0.51-15.35-0.873-24.008c-0.362-8.658-0.91-17.388-1.636-26.191
			c-1.315,3.056-2.774,6.438-4.381,10.148c-1.606,3.71-3.193,7.421-4.763,11.131c-1.568,3.711-3.082,7.258-4.543,10.641
			c-1.457,3.384-2.7,6.275-3.723,8.676h-11.896c-1.023-2.4-2.265-5.292-3.722-8.676c-1.462-3.383-2.978-6.929-4.546-10.641
			c-1.567-3.709-3.155-7.42-4.76-11.131c-1.606-3.71-3.067-7.093-4.381-10.148c-0.728,8.803-1.272,17.533-1.636,26.191
			c-0.366,8.659-0.656,16.662-0.873,24.008H829.98c0.289-5.964,0.636-12.331,1.037-19.097c0.396-6.766,0.834-13.514,1.309-20.245
			c0.472-6.729,1.02-13.205,1.637-19.425c0.618-6.22,1.292-11.84,2.021-16.86H852.246z"/>
		<path fill="#FFFFFF" d="M977.854,105.833v14.624h-50.524V44.829h17.021v61.003L977.854,105.833L977.854,105.833z"/>
		<path fill="#FFFFFF" d="M1040.156,120.456c-0.842-2.627-1.745-5.327-2.714-8.096c-0.971-2.77-1.936-5.528-2.896-8.273h-29.536
			c-0.956,2.759-1.914,5.523-2.872,8.295c-0.96,2.772-1.854,5.465-2.681,8.074H981.78c2.845-8.146,5.544-15.677,8.1-22.59
			c2.554-6.911,5.053-13.422,7.497-19.534c2.445-6.112,4.854-11.912,7.227-17.407c2.371-5.492,4.836-10.857,7.391-16.096h16.138
			c2.484,5.239,4.934,10.604,7.348,16.096c2.409,5.495,4.843,11.295,7.291,17.407c2.447,6.112,4.95,12.624,7.51,19.534
			c2.558,6.913,5.264,14.443,8.113,22.59H1040.156z M1019.703,61.962c-0.38,1.098-0.936,2.593-1.666,4.483
			c-0.732,1.891-1.565,4.075-2.498,6.553c-0.936,2.478-1.981,5.206-3.136,8.185c-1.152,2.979-2.325,6.103-3.521,9.372h21.627
			c-1.159-3.28-2.276-6.414-3.361-9.401c-1.084-2.988-2.117-5.721-3.094-8.201c-0.977-2.477-1.832-4.66-2.567-6.549
			C1020.751,64.517,1020.156,63.036,1019.703,61.962z"/>
		<path fill="#FFFFFF" d="M1131.616,82.588c0,6.548-1.021,12.26-3.058,17.134c-2.035,4.875-4.93,8.914-8.675,12.113
			c-3.748,3.203-8.312,5.603-13.694,7.203c-5.388,1.6-11.425,2.401-18.117,2.401c-3.058,0-6.621-0.129-10.693-0.382
			c-4.075-0.257-8.077-0.781-12.004-1.583V45.812c3.927-0.727,8.02-1.218,12.275-1.474c4.257-0.254,7.91-0.382,10.969-0.382
			c6.475,0,12.349,0.729,17.623,2.183c5.275,1.456,9.804,3.748,13.588,6.875c3.782,3.129,6.693,7.131,8.729,12.004
			C1130.596,69.893,1131.616,75.75,1131.616,82.588z M1082.398,106.597c0.799,0.073,1.729,0.128,2.781,0.164
			c1.055,0.038,2.311,0.054,3.767,0.054c8.512,0,14.821-2.145,18.935-6.438c4.109-4.292,6.166-10.221,6.166-17.789
			c0-7.929-1.965-13.931-5.895-18.007c-3.929-4.073-10.148-6.11-18.66-6.11c-1.165,0-2.365,0.019-3.604,0.054
			c-1.236,0.037-2.398,0.127-3.49,0.272V106.597z"/>
		<path fill="#FFFFFF" d="M1191.083,120.456c-0.843-2.627-1.745-5.327-2.714-8.096c-0.97-2.77-1.934-5.528-2.896-8.273h-29.534
			c-0.957,2.759-1.914,5.523-2.873,8.295c-0.962,2.772-1.854,5.465-2.682,8.074h-17.679c2.845-8.146,5.544-15.677,8.1-22.59
			c2.556-6.911,5.054-13.422,7.497-19.534c2.445-6.112,4.854-11.912,7.227-17.407c2.373-5.492,4.837-10.857,7.391-16.096h16.138
			c2.484,5.239,4.935,10.604,7.349,16.096c2.408,5.495,4.842,11.295,7.291,17.407c2.446,6.112,4.949,12.624,7.51,19.534
			c2.557,6.913,5.262,14.443,8.112,22.59H1191.083z M1170.63,61.962c-0.38,1.098-0.936,2.593-1.666,4.483
			c-0.73,1.891-1.563,4.075-2.498,6.553c-0.936,2.478-1.979,5.206-3.136,8.185c-1.152,2.979-2.325,6.103-3.521,9.372h21.626
			c-1.156-3.28-2.275-6.414-3.359-9.401c-1.085-2.988-2.118-5.721-3.094-8.201c-0.978-2.477-1.832-4.66-2.568-6.549
			C1171.677,64.517,1171.082,63.036,1170.63,61.962z"/>
		<path fill="#FFFFFF" d="M1233.089,75.848c3.061-5.151,5.971-10.303,8.74-15.454c2.768-5.152,5.314-10.34,7.649-15.565h18.77
			c-4.146,8.149-8.439,16.042-12.877,23.681c-4.438,7.639-9.132,15.316-14.078,23.026v28.92h-17.021V91.755
			c-4.95-7.711-9.658-15.423-14.136-23.136c-4.474-7.711-8.781-15.641-12.931-23.79h19.752c2.324,5.225,4.831,10.413,7.521,15.565
			C1227.164,65.544,1230.036,70.697,1233.089,75.848z"/>
	</g>
	<g>
		<path fill="#FFFFFF" d="M643.717,238.437c-7.93,0-13.66,2.202-17.188,6.602c-3.529,4.403-5.293,10.422-5.293,18.062
			c0,3.71,0.437,7.076,1.311,10.094c0.873,3.02,2.182,5.621,3.928,7.803s3.932,3.875,6.549,5.074c2.617,1.2,5.676,1.801,9.169,1.801
			c1.892,0,3.509-0.037,4.854-0.109c1.346-0.073,2.525-0.219,3.545-0.438v-26.301h17.023v37.433
			c-2.036,0.802-5.311,1.655-9.819,2.563c-4.513,0.908-10.077,1.363-16.698,1.363c-5.674,0-10.822-0.874-15.439-2.619
			c-4.621-1.747-8.567-4.292-11.844-7.64c-3.271-3.345-5.802-7.457-7.582-12.332c-1.783-4.873-2.676-10.438-2.676-16.696
			c0-6.33,0.982-11.931,2.947-16.806c1.965-4.874,4.654-9.003,8.075-12.386c3.419-3.383,7.438-5.947,12.06-7.694
			c4.619-1.746,9.549-2.62,14.787-2.62c3.564,0,6.781,0.237,9.657,0.71c2.874,0.474,5.348,1.02,7.421,1.637
			c2.075,0.619,3.783,1.255,5.13,1.91c1.347,0.655,2.312,1.165,2.894,1.528l-4.91,13.642c-2.329-1.236-5.003-2.309-8.021-3.219
			C650.574,238.892,647.281,238.437,643.717,238.437z"/>
		<path fill="#FFFFFF" d="M702.866,224.468c11.349,0,20.042,2.019,26.082,6.057c6.039,4.038,9.058,10.312,9.058,18.825
			c0,5.312-1.219,9.622-3.655,12.932c-2.438,3.312-5.946,5.912-10.528,7.803c1.525,1.894,3.126,4.057,4.802,6.493
			c1.671,2.439,3.328,4.985,4.964,7.639c1.638,2.657,3.221,5.421,4.748,8.295s2.945,5.692,4.256,8.457H723.56
			c-1.388-2.473-2.794-4.983-4.218-7.53c-1.424-2.546-2.885-5.02-4.382-7.42c-1.496-2.401-2.978-4.674-4.438-6.821
			c-1.461-2.146-2.921-4.092-4.383-5.839h-8.4v27.61h-17.022v-74.536c3.71-0.727,7.546-1.236,11.513-1.528
			C696.191,224.615,699.736,224.468,702.866,224.468z M703.848,238.982c-1.235,0-2.346,0.038-3.328,0.109
			c-0.98,0.073-1.907,0.146-2.781,0.218v20.517h4.803c6.4,0,10.984-0.8,13.75-2.401c2.764-1.6,4.146-4.328,4.146-8.185
			c0-3.71-1.4-6.347-4.199-7.912C713.433,239.766,709.305,238.982,703.848,238.982z"/>
		<path fill="#FFFFFF" d="M750.771,300.969v-75.627h51.072v14.296h-34.049v14.842h30.229v13.969h-30.229v18.225h36.558v14.296
			L750.771,300.969L750.771,300.969z"/>
		<path fill="#FFFFFF" d="M814.177,300.969v-75.627h51.073v14.296h-34.048v14.842h30.228v13.969h-30.228v18.225h36.557v14.296
			L814.177,300.969L814.177,300.969z"/>
		<path fill="#FFFFFF" d="M912.064,302.495c-12.295,0-21.661-3.417-28.102-10.257c-6.438-6.837-9.658-16.551-9.658-29.138
			c0-6.256,0.982-11.841,2.947-16.752c1.963-4.911,4.653-9.058,8.075-12.44c3.419-3.383,7.492-5.947,12.222-7.694
			c4.729-1.746,9.858-2.62,15.391-2.62c3.197,0,6.109,0.237,8.729,0.71c2.619,0.474,4.911,1.02,6.875,1.637
			c1.966,0.619,3.602,1.255,4.912,1.91c1.31,0.655,2.255,1.165,2.837,1.528l-4.912,13.75c-2.329-1.236-5.038-2.292-8.13-3.165
			c-3.093-0.873-6.602-1.31-10.53-1.31c-2.618,0-5.184,0.437-7.691,1.31c-2.511,0.873-4.73,2.274-6.658,4.202
			c-1.929,1.928-3.476,4.419-4.64,7.476c-1.164,3.055-1.743,6.766-1.743,11.131c0,3.492,0.381,6.749,1.145,9.767
			c0.765,3.02,2.001,5.621,3.711,7.803c1.708,2.183,3.945,3.912,6.711,5.184c2.767,1.273,6.113,1.91,10.04,1.91
			c2.475,0,4.693-0.145,6.657-0.437c1.966-0.29,3.711-0.637,5.239-1.037c1.525-0.399,2.872-0.854,4.035-1.364
			c1.164-0.508,2.221-0.982,3.166-1.418l4.69,13.642c-2.399,1.455-5.783,2.765-10.146,3.928
			C922.869,301.914,917.812,302.495,912.064,302.495z"/>
		<path fill="#FFFFFF" d="M945.569,300.969v-75.627h51.07v14.296h-34.048v14.842h30.229v13.969h-30.229v18.225h36.56v14.296
			L945.569,300.969L945.569,300.969z"/>
	</g>
	<g>
		<path fill="#FFFFFF" d="M81.145,690.454c-0.849-2.651-1.76-5.372-2.736-8.165c-0.976-2.793-1.951-5.575-2.919-8.345H45.7
			c-0.963,2.78-1.93,5.569-2.896,8.366c-0.968,2.797-1.869,5.513-2.703,8.144h-17.83c2.87-8.217,5.592-15.812,8.168-22.783
			s5.096-13.537,7.562-19.701c2.467-6.163,4.894-12.014,7.286-17.555c2.394-5.539,4.878-10.95,7.453-16.234h16.275
			c2.506,5.284,4.976,10.695,7.409,16.234c2.432,5.541,4.884,11.392,7.354,17.555c2.469,6.164,4.994,12.73,7.574,19.701
			c2.578,6.974,5.308,14.566,8.182,22.783H81.145L81.145,690.454z M60.517,631.46c-0.383,1.107-0.944,2.616-1.682,4.521
			c-0.737,1.906-1.576,4.109-2.519,6.607c-0.943,2.499-1.998,5.25-3.161,8.255c-1.164,3.005-2.347,6.154-3.549,9.452h21.811
			c-1.168-3.309-2.298-6.469-3.391-9.479c-1.095-3.015-2.135-5.771-3.119-8.271c-0.984-2.5-1.848-4.7-2.591-6.604
			C61.574,634.037,60.973,632.544,60.517,631.46z"/>
		<path fill="#FFFFFF" d="M176.468,652.262c0,6.533-0.975,12.272-2.918,17.228c-1.943,4.954-4.604,9.1-7.979,12.438
			c-3.376,3.338-7.393,5.854-12.053,7.539c-4.659,1.688-9.667,2.531-15.022,2.531c-5.21,0-10.127-0.844-14.749-2.531
			c-4.622-1.687-8.658-4.201-12.106-7.539c-3.449-3.338-6.164-7.482-8.144-12.438c-1.981-4.953-2.973-10.692-2.973-17.228
			c0-6.527,1.026-12.271,3.082-17.225c2.053-4.951,4.823-9.115,8.309-12.491c3.484-3.373,7.521-5.906,12.108-7.595
			c4.584-1.688,9.41-2.53,14.473-2.53c5.21,0,10.126,0.843,14.748,2.53c4.622,1.687,8.658,4.222,12.106,7.595
			c3.449,3.376,6.164,7.54,8.146,12.491C175.476,639.99,176.468,645.732,176.468,652.262z M118.244,652.262
			c0,3.743,0.458,7.119,1.376,10.127c0.918,3.011,2.236,5.597,3.962,7.762c1.724,2.165,3.833,3.834,6.329,5.007
			c2.494,1.175,5.356,1.761,8.585,1.761c3.153,0,5.998-0.586,8.53-1.761c2.53-1.173,4.657-2.842,6.383-5.007
			c1.724-2.165,3.045-4.751,3.963-7.762c0.916-3.008,1.376-6.384,1.376-10.127c0-3.739-0.46-7.135-1.376-10.181
			c-0.918-3.043-2.239-5.649-3.963-7.813c-1.726-2.161-3.853-3.831-6.383-5.008c-2.532-1.173-5.377-1.762-8.53-1.762
			c-3.229,0-6.091,0.606-8.585,1.817c-2.496,1.211-4.605,2.896-6.329,5.062c-1.726,2.165-3.044,4.771-3.962,7.814
			C118.702,645.238,118.244,648.594,118.244,652.262z M126.28,645.329h24.542v13.646H126.28V645.329z"/>
		<path fill="#FFFFFF" d="M234.029,614.181h17.169v76.273h-17.169v-32.358h-28.838v32.358h-17.168v-76.273h17.168v29.167h28.838
			V614.181z"/>
		<path fill="#FFFFFF" d="M317.236,690.454c-4.917-8.73-10.236-17.354-15.961-25.864c-5.723-8.512-11.814-16.546-18.27-24.104
			v49.969h-16.949v-76.273h13.978c2.421,2.422,5.1,5.396,8.034,8.915c2.935,3.522,5.924,7.283,8.97,11.282
			c3.044,4,6.071,8.144,9.081,12.438c3.008,4.291,5.833,8.422,8.475,12.383v-45.018h17.06v76.273L317.236,690.454L317.236,690.454z"
			/>
		<path fill="#FFFFFF" d="M397.681,690.454c-0.848-2.651-1.76-5.372-2.736-8.165s-1.951-5.575-2.919-8.345h-29.789
			c-0.963,2.78-1.93,5.569-2.896,8.366c-0.968,2.797-1.869,5.513-2.703,8.144h-17.829c2.87-8.217,5.592-15.812,8.168-22.783
			c2.577-6.971,5.096-13.537,7.562-19.701c2.467-6.163,4.894-12.014,7.287-17.555c2.393-5.539,4.877-10.95,7.452-16.234h16.275
			c2.506,5.284,4.976,10.695,7.409,16.234c2.432,5.541,4.884,11.392,7.354,17.555c2.47,6.164,4.994,12.73,7.574,19.701
			c2.578,6.974,5.308,14.566,8.183,22.783H397.681L397.681,690.454z M377.053,631.46c-0.383,1.107-0.943,2.616-1.682,4.521
			c-0.737,1.906-1.576,4.109-2.519,6.607c-0.942,2.499-1.997,5.25-3.16,8.255c-1.165,3.005-2.348,6.154-3.55,9.452h21.811
			c-1.168-3.309-2.298-6.469-3.391-9.479c-1.095-3.015-2.135-5.771-3.119-8.271s-1.848-4.7-2.59-6.604
			C378.11,634.037,377.509,632.544,377.053,631.46z"/>
		<path fill="#FFFFFF" d="M445.676,630.03c2.128-0.881,4.35-1.89,6.659-3.027c2.312-1.137,4.566-2.383,6.771-3.742
			c2.199-1.354,4.31-2.787,6.326-4.292c2.02-1.503,3.833-3.1,5.449-4.788h11.445v76.273h-16.399v-54.921
			c-2.2,1.468-4.66,2.807-7.374,4.018c-2.715,1.21-5.355,2.256-7.925,3.139L445.676,630.03z"/>
		<path fill="#FFFFFF" d="M537.356,668.001c0-2.127-0.479-4.017-1.432-5.668c-0.956-1.65-2.604-3.027-4.954-4.128
			c-2.35-1.1-5.504-1.943-9.465-2.531c-3.963-0.585-8.953-0.88-14.969-0.88c0.807-6.824,1.467-13.758,1.98-20.801
			c0.514-7.044,0.916-13.648,1.211-19.812H551v13.758h-27.515c-0.147,2.644-0.313,5.192-0.495,7.65
			c-0.187,2.458-0.385,4.604-0.606,6.438c10.712,0.733,18.619,3.246,23.72,7.539c5.1,4.291,7.647,10.256,7.647,17.887
			c0,3.521-0.624,6.788-1.87,9.796c-1.249,3.009-3.119,5.612-5.612,7.812c-2.495,2.2-5.633,3.927-9.411,5.173
			c-3.777,1.248-8.198,1.871-13.263,1.871c-1.979,0-4.056-0.13-6.218-0.385c-2.165-0.26-4.258-0.59-6.273-0.992
			c-2.02-0.399-3.836-0.822-5.446-1.265c-1.616-0.438-2.862-0.88-3.743-1.321l2.973-13.538c1.833,0.811,4.255,1.598,7.266,2.366
			c3.008,0.771,6.604,1.156,10.785,1.156c5.062,0,8.73-1.008,11.008-3.027C536.219,673.084,537.356,670.717,537.356,668.001z"/>
		<path fill="#FFFFFF" d="M585.012,670.222c0-2.786,0.402-5.332,1.207-7.644c0.807-2.311,1.883-4.397,3.239-6.271
			c1.353-1.865,2.926-3.517,4.72-4.947c1.793-1.429,3.678-2.692,5.653-3.794c-1.736-2.152-3.301-4.455-4.694-6.915
			c-1.395-2.457-2.091-5.154-2.091-8.092c0-6.454,1.944-11.428,5.833-14.911c3.889-3.484,9.246-5.229,16.07-5.229
			c3.445,0,6.455,0.458,9.023,1.374c2.566,0.919,4.715,2.165,6.438,3.745c1.725,1.578,3.026,3.413,3.907,5.504
			c0.881,2.093,1.32,4.348,1.32,6.771c0,4.479-1.268,8.459-3.802,11.943c-2.532,3.487-5.745,6.404-9.637,8.751l12.394,12.27
			c0.646-1.46,1.278-3.307,1.893-5.533c0.609-2.229,0.988-4.182,1.135-5.862l13.646,1.761c-0.146,1.397-0.401,2.923-0.771,4.572
			c-0.369,1.651-0.83,3.321-1.38,5.01c-0.554,1.689-1.177,3.38-1.874,5.067c-0.697,1.689-1.452,3.231-2.262,4.626
			c2.35,2.64,4.646,5.518,6.886,8.634c2.237,3.115,4.169,6.25,5.785,9.402H640.87c-0.611-0.967-1.433-2.168-2.457-3.599
			c-1.026-1.432-2.054-2.661-3.078-3.689c-2.938,2.354-6.352,4.322-10.241,5.906c-3.892,1.581-8.26,2.372-13.104,2.372
			c-5.142,0-9.438-0.643-12.885-1.926c-3.449-1.281-6.225-2.934-8.313-4.945c-2.093-2.019-3.581-4.29-4.461-6.819
			C585.452,675.226,585.012,672.715,585.012,670.222z M600.311,668.575c0,1.098,0.222,2.23,0.662,3.403
			c0.44,1.172,1.158,2.252,2.15,3.236c0.994,0.988,2.263,1.794,3.806,2.416c1.546,0.624,3.421,0.936,5.629,0.936
			c3.091,0,5.794-0.407,8.111-1.229c2.316-0.818,4.247-1.896,5.791-3.234l-17.729-17.608c-1.021,0.512-2.024,1.134-3.009,1.866
			c-0.981,0.73-1.879,1.594-2.681,2.581c-0.803,0.987-1.46,2.104-1.968,3.351C600.564,665.536,600.311,666.964,600.311,668.575z
			 M621.662,630.592c0-1.688-0.55-3.197-1.65-4.521c-1.102-1.321-2.936-1.983-5.503-1.983c-2.349,0-4.166,0.715-5.448,2.146
			c-1.283,1.432-1.927,3.282-1.927,5.559c0,1.91,0.55,3.762,1.651,5.558c1.101,1.802,2.519,3.518,4.256,5.153
			c2.359-1.323,4.384-2.903,6.08-4.742C620.814,635.924,621.662,633.533,621.662,630.592z"/>
		<path fill="#FFFFFF" d="M687.366,630.03c2.127-0.881,4.348-1.89,6.658-3.027c2.312-1.137,4.566-2.383,6.77-3.742
			c2.2-1.354,4.312-2.787,6.329-4.292c2.017-1.503,3.833-3.1,5.447-4.788h11.447v76.273h-16.399v-54.921
			c-2.202,1.468-4.661,2.807-7.375,4.018c-2.714,1.21-5.356,2.256-7.924,3.139L687.366,630.03z"/>
		<path fill="#FFFFFF" d="M771.673,641.807c4.771,0,8.822,0.646,12.162,1.928c3.338,1.282,6.07,3.024,8.199,5.229
			c2.127,2.2,3.668,4.771,4.623,7.703c0.953,2.936,1.432,6.055,1.432,9.354c0,2.937-0.534,5.942-1.597,9.024
			c-1.064,3.082-2.682,5.872-4.844,8.365c-2.164,2.495-4.916,4.551-8.256,6.163c-3.339,1.612-7.281,2.422-11.831,2.422
			c-9.173,0-16.144-2.898-20.909-8.695c-4.771-5.796-7.154-13.794-7.154-23.994c0-7.336,1.137-13.828,3.411-19.479
			c2.271-5.648,5.521-10.4,9.741-14.253c4.218-3.854,9.314-6.785,15.298-8.806c5.979-2.02,12.712-3.062,20.194-3.137
			c0.146,2.274,0.292,4.493,0.441,6.658c0.146,2.165,0.291,4.421,0.44,6.769c-3.744,0.074-7.248,0.425-10.514,1.048
			c-3.267,0.623-6.236,1.596-8.916,2.914c-2.679,1.32-5.007,3.027-6.986,5.117c-1.981,2.092-3.521,4.644-4.622,7.65
			c1.61-0.732,3.263-1.247,4.95-1.541C768.627,641.955,770.205,641.807,771.673,641.807z M769.582,654.574
			c-1.615,0-3.339,0.146-5.173,0.438c-1.834,0.294-3.269,0.698-4.293,1.211c0,0.294-0.021,0.734-0.056,1.321
			c-0.037,0.588-0.056,1.102-0.056,1.541c0,2.641,0.182,5.136,0.55,7.484c0.367,2.349,0.991,4.399,1.872,6.161
			c0.88,1.764,2.052,3.138,3.522,4.129c1.466,0.988,3.3,1.484,5.503,1.484c1.833,0,3.392-0.385,4.677-1.154
			c1.282-0.771,2.347-1.741,3.192-2.918c0.841-1.174,1.466-2.477,1.87-3.906c0.401-1.432,0.604-2.809,0.604-4.126
			c0-3.743-0.934-6.621-2.806-8.642C777.121,655.584,773.984,654.574,769.582,654.574z"/>
		<path fill="#FFFFFF" d="M831.655,614.181h17.17v76.273h-17.17V614.181z"/>
		<path fill="#FFFFFF" d="M936.324,652.262c0,6.533-0.977,12.272-2.918,17.228c-1.943,4.954-4.604,9.1-7.979,12.438
			c-3.376,3.338-7.393,5.854-12.053,7.539c-4.66,1.688-9.667,2.531-15.022,2.531c-5.21,0-10.127-0.844-14.748-2.531
			c-4.623-1.687-8.657-4.201-12.105-7.539c-3.45-3.338-6.164-7.482-8.145-12.438c-1.98-4.953-2.975-10.692-2.975-17.228
			c0-6.527,1.027-12.271,3.083-17.225c2.053-4.951,4.823-9.115,8.31-12.491c3.483-3.373,7.521-5.906,12.106-7.595
			s9.411-2.53,14.474-2.53c5.211,0,10.127,0.843,14.748,2.53c4.622,1.688,8.657,4.222,12.106,7.595
			c3.449,3.376,6.164,7.54,8.146,12.491C935.332,639.99,936.324,645.732,936.324,652.262z M878.102,652.262
			c0,3.743,0.457,7.119,1.375,10.127c0.918,3.011,2.236,5.597,3.963,7.762c1.725,2.165,3.832,3.834,6.328,5.007
			c2.494,1.175,5.355,1.761,8.586,1.761c3.151,0,5.996-0.586,8.529-1.761c2.529-1.173,4.657-2.842,6.383-5.007
			c1.725-2.165,3.045-4.751,3.963-7.762c0.916-3.008,1.375-6.384,1.375-10.127c0-3.739-0.459-7.135-1.375-10.181
			c-0.918-3.043-2.238-5.649-3.963-7.813c-1.726-2.161-3.854-3.831-6.383-5.008c-2.533-1.173-5.378-1.762-8.529-1.762
			c-3.229,0-6.092,0.606-8.586,1.817c-2.496,1.211-4.604,2.896-6.328,5.062c-1.727,2.165-3.045,4.771-3.963,7.814
			C878.559,645.238,878.102,648.594,878.102,652.262z"/>
		<path fill="#FFFFFF" d="M970.861,645.465c3.086-5.195,6.021-10.391,8.813-15.586c2.791-5.195,5.362-10.43,7.714-15.698h18.934
			c-4.184,8.221-8.512,16.182-12.988,23.886c-4.476,7.703-9.209,15.444-14.198,23.223v29.167h-17.169V661.51
			c-4.988-7.774-9.74-15.556-14.252-23.335c-4.513-7.774-8.859-15.772-13.043-23.993h19.922c2.344,5.271,4.871,10.503,7.583,15.698
			C964.887,635.074,967.783,640.269,970.861,645.465z"/>
		<path fill="#FFFFFF" d="M1064.104,690.454c-4.916-8.73-10.233-17.354-15.959-25.864c-5.724-8.512-11.813-16.546-18.271-24.104
			v49.969h-16.95v-76.273h13.979c2.42,2.422,5.099,5.396,8.034,8.915c2.935,3.522,5.924,7.283,8.97,11.282
			c3.044,4,6.071,8.144,9.08,12.438c3.009,4.291,5.833,8.422,8.476,12.383v-45.018h17.061v76.273L1064.104,690.454L1064.104,690.454
			z"/>
		<path fill="#FFFFFF" d="M1093.38,614.181h17.171v76.273h-17.171V614.181z"/>
		<path fill="#FFFFFF" d="M1198.048,652.262c0,6.533-0.973,12.272-2.916,17.228c-1.944,4.953-4.604,9.1-7.979,12.438
			c-3.376,3.338-7.396,5.854-12.054,7.539c-4.658,1.688-9.669,2.531-15.021,2.531c-5.211,0-10.126-0.844-14.748-2.531
			c-4.624-1.688-8.659-4.201-12.108-7.539c-3.448-3.338-6.162-7.482-8.144-12.438c-1.982-4.954-2.974-10.692-2.974-17.228
			c0-6.527,1.027-12.271,3.081-17.225c2.057-4.951,4.825-9.115,8.312-12.491c3.482-3.373,7.521-5.906,12.104-7.595
			c4.587-1.688,9.41-2.53,14.476-2.53c5.209,0,10.126,0.843,14.747,2.53c4.624,1.688,8.656,4.222,12.105,7.595
			c3.448,3.376,6.163,7.54,8.146,12.491C1197.058,639.99,1198.048,645.732,1198.048,652.262z M1139.826,652.262
			c0,3.743,0.457,7.119,1.375,10.127c0.917,3.011,2.237,5.597,3.963,7.762c1.722,2.165,3.833,3.834,6.328,5.007
			c2.493,1.175,5.354,1.761,8.585,1.761c3.153,0,5.998-0.586,8.529-1.761c2.529-1.173,4.659-2.842,6.384-5.007
			c1.724-2.165,3.044-4.751,3.962-7.762c0.917-3.008,1.376-6.384,1.376-10.127c0-3.739-0.459-7.135-1.376-10.181
			c-0.918-3.043-2.238-5.649-3.962-7.813c-1.725-2.161-3.854-3.831-6.384-5.008c-2.531-1.173-5.376-1.762-8.529-1.762
			c-3.229,0-6.092,0.606-8.585,1.817c-2.495,1.211-4.606,2.896-6.328,5.062c-1.726,2.165-3.046,4.771-3.963,7.814
			C1140.283,645.238,1139.826,648.594,1139.826,652.262z"/>
		<path fill="#FFFFFF" d="M1232.586,645.465c3.086-5.195,6.023-10.391,8.816-15.586c2.791-5.195,5.36-10.43,7.715-15.698h18.93
			c-4.182,8.221-8.513,16.182-12.985,23.886c-4.478,7.703-9.209,15.444-14.197,23.223v29.167h-17.17V661.51
			c-4.991-7.774-9.74-15.556-14.254-23.335c-4.514-7.774-8.859-15.772-13.043-23.993h19.923c2.344,5.271,4.87,10.503,7.584,15.698
			C1226.612,635.074,1229.509,640.269,1232.586,645.465z"/>
	</g>
	<g>
		<path fill="#343434" d="M652.868,434.482c0,2.767-0.547,5.422-1.638,7.966c-1.093,2.549-2.514,5.006-4.258,7.366
			c-1.745,2.364-3.711,4.638-5.894,6.821c-2.183,2.182-4.329,4.255-6.439,6.222c-1.091,1.019-2.272,2.164-3.546,3.437
			c-1.271,1.274-2.493,2.565-3.655,3.875c-1.163,1.309-2.2,2.528-3.109,3.654c-0.91,1.129-1.475,2.058-1.69,2.783h32.521v13.642
			h-50.418c-0.147-0.801-0.219-1.816-0.219-3.055c0-1.239,0-2.109,0-2.62c0-3.493,0.562-6.692,1.69-9.604
			c1.127-2.908,2.6-5.618,4.419-8.13c1.818-2.508,3.874-4.854,6.165-7.036c2.292-2.185,4.566-4.366,6.82-6.551
			c1.746-1.673,3.384-3.256,4.912-4.745c1.525-1.49,2.873-2.948,4.036-4.366c1.162-1.418,2.072-2.838,2.729-4.256
			s0.982-2.854,0.982-4.312c0-3.2-0.911-5.457-2.729-6.767c-1.817-1.311-4.075-1.964-6.766-1.964c-1.965,0-3.805,0.311-5.512,0.926
			c-1.712,0.618-3.273,1.35-4.691,2.187c-1.419,0.835-2.639,1.673-3.656,2.508c-1.021,0.839-1.784,1.511-2.292,2.021l-8.077-11.352
			c3.201-2.979,6.934-5.438,11.188-7.367c4.256-1.926,8.818-2.891,13.693-2.891c4.438,0,8.259,0.51,11.459,1.527
			c3.201,1.021,5.839,2.456,7.911,4.312c2.075,1.855,3.604,4.11,4.583,6.764C652.376,428.137,652.868,431.138,652.868,434.482z"/>
		<path fill="#343434" d="M716.271,452.271c0,12.732-2.421,22.497-7.259,29.302c-4.839,6.806-11.513,10.204-20.022,10.204
			c-8.515,0-15.189-3.398-20.026-10.204c-4.839-6.805-7.257-16.567-7.257-29.302c0-6.329,0.636-11.934,1.91-16.807
			c1.271-4.875,3.107-8.984,5.51-12.333c2.401-3.347,5.274-5.893,8.622-7.64c3.346-1.745,7.094-2.618,11.241-2.618
			c8.512,0,15.186,3.401,20.022,10.204S716.271,439.612,716.271,452.271z M699.684,452.271c0-3.782-0.183-7.222-0.545-10.312
			c-0.363-3.093-0.945-5.766-1.747-8.022c-0.802-2.255-1.893-4-3.271-5.236c-1.384-1.235-3.094-1.854-5.129-1.854
			c-2.039,0-3.73,0.618-5.075,1.854c-1.347,1.236-2.439,2.981-3.274,5.236c-0.837,2.259-1.438,4.932-1.801,8.022
			s-0.545,6.529-0.545,10.312c0,3.782,0.183,7.237,0.545,10.366c0.363,3.129,0.964,5.82,1.801,8.074
			c0.835,2.257,1.93,4.004,3.274,5.239c1.345,1.239,3.036,1.854,5.075,1.854c2.035,0,3.745-0.614,5.129-1.854
			c1.381-1.235,2.472-2.982,3.271-5.239c0.802-2.254,1.384-4.945,1.747-8.074C699.501,459.51,699.684,456.055,699.684,452.271z"/>
		<path fill="#343434" d="M724.892,430.336c2.108-0.874,4.312-1.871,6.604-3s4.529-2.364,6.712-3.712
			c2.182-1.346,4.271-2.764,6.275-4.257c2-1.49,3.8-3.073,5.399-4.747h11.352v75.628h-16.262v-54.455
			c-2.184,1.456-4.621,2.781-7.312,3.981c-2.692,1.198-5.312,2.237-7.856,3.108L724.892,430.336z"/>
		<path fill="#343434" d="M801.393,491.887c-1.966,0-4.036-0.13-6.222-0.382c-2.181-0.257-4.293-0.603-6.329-1.038
			c-2.037-0.438-3.893-0.909-5.563-1.418c-1.677-0.511-2.984-0.983-3.931-1.418l3.165-13.533c1.893,0.804,4.312,1.654,7.257,2.563
			c2.947,0.912,6.604,1.363,10.971,1.363c5.02,0,8.69-0.943,11.021-2.836c2.327-1.894,3.492-4.438,3.492-7.643
			c0-1.962-0.42-3.617-1.255-4.965c-0.837-1.346-1.983-2.437-3.438-3.272c-1.455-0.836-3.184-1.42-5.184-1.746
			c-2.002-0.326-4.131-0.488-6.384-0.488h-6.331v-13.101h7.203c1.6,0,3.146-0.145,4.639-0.434c1.489-0.293,2.817-0.782,3.983-1.476
			c1.161-0.69,2.09-1.638,2.78-2.837c0.689-1.2,1.037-2.713,1.037-4.53c0-1.38-0.292-2.58-0.874-3.601
			c-0.583-1.019-1.327-1.854-2.234-2.513c-0.911-0.653-1.966-1.146-3.165-1.472c-1.2-0.327-2.42-0.492-3.656-0.492
			c-3.129,0-6.021,0.475-8.676,1.42c-2.656,0.947-5.074,2.11-7.257,3.493l-5.783-11.897c1.162-0.726,2.523-1.488,4.091-2.291
			c1.562-0.8,3.292-1.526,5.186-2.184c1.893-0.652,3.909-1.199,6.059-1.637c2.144-0.438,4.419-0.653,6.818-0.653
			c4.438,0,8.274,0.526,11.514,1.58c3.235,1.054,5.91,2.544,8.021,4.468c2.108,1.925,3.674,4.177,4.692,6.756
			c1.018,2.579,1.527,5.396,1.527,8.444c0,2.979-0.838,5.866-2.511,8.664c-1.676,2.796-3.93,4.92-6.767,6.374
			c3.928,1.602,6.965,3.987,9.111,7.158c2.146,3.168,3.221,6.975,3.221,11.419c0,3.496-0.582,6.72-1.747,9.667
			c-1.164,2.95-2.983,5.503-5.456,7.649c-2.475,2.146-5.621,3.825-9.439,5.025C811.16,491.282,806.631,491.887,801.393,491.887z"/>
	</g>
	
		<linearGradient id="SVGID_1_" gradientUnits="userSpaceOnUse" x1="-208.3369" y1="766.1377" x2="-25.7526" y2="669.0558" gradientTransform="matrix(1 0 0 -1 219 849.7832)">
		<stop  offset="0.4802" style="stop-color:#FFFFFF"/>
		<stop  offset="0.5328" style="stop-color:#FAFAFA"/>
		<stop  offset="0.5971" style="stop-color:#EBEBEB"/>
		<stop  offset="0.6675" style="stop-color:#D2D2D2"/>
		<stop  offset="0.7423" style="stop-color:#AFAFAF"/>
		<stop  offset="0.8205" style="stop-color:#838383"/>
		<stop  offset="0.9017" style="stop-color:#4C4C4C"/>
		<stop  offset="0.9838" style="stop-color:#0D0D0D"/>
		<stop  offset="1" style="stop-color:#000000"/>
	</linearGradient>
	<path fill="url(#SVGID_1_)" d="M137.083,246.527l4.542-0.088c-56.757-0.113-102.73-45.771-102.73-102.554
		c0-56.783,47.042-102.823,103.042-102.935V-0.28C62.938-0.168-2.406,64.336-2.406,143.858c0,52.89,28.713,99.132,71.188,124.205
		c21.387,12.625,41.429,19.042,67.885,19.079L137.083,246.527z"/>
	<path fill="#FFFFFF" d="M142.208,82.123c-34.112,0-61.763,27.651-61.763,61.763c0,34.112,27.651,61.763,61.763,61.763
		s61.763-27.65,61.763-61.763C203.972,109.774,176.32,82.123,142.208,82.123z M142.213,164.473
		c-11.368,0-20.588-9.221-20.588-20.587c0-11.368,9.22-20.588,20.588-20.588c11.37,0,20.588,9.22,20.588,20.588
		C162.801,155.252,153.583,164.473,142.213,164.473z"/>
	<path fill="#FFFFFF" d="M435.53,184.633c22.505-25.636,19.966-64.658-5.669-87.162c-25.637-22.505-64.657-19.968-87.162,5.668
		c-22.505,25.636-19.967,64.658,5.67,87.162C374.004,212.806,413.025,210.269,435.53,184.633z M373.641,130.308
		c7.5-8.545,20.512-9.389,29.053-1.891c8.544,7.5,9.391,20.511,1.891,29.055c-7.501,8.544-20.512,9.39-29.055,1.89
		C366.987,151.863,366.14,138.852,373.641,130.308z"/>
	<path fill="#FFFFFF" d="M342.865,349.617c-22.609,25.544-20.229,64.575,5.313,87.184c25.543,22.609,64.575,20.231,87.185-5.312
		c22.608-25.544,20.229-64.575-5.314-87.185C404.506,321.696,365.474,324.073,342.865,349.617z M404.534,404.194
		c-7.536,8.514-20.551,9.305-29.062,1.771c-8.513-7.535-9.307-20.549-1.771-29.062c7.535-8.514,20.549-9.307,29.062-1.771
		C411.273,382.666,412.069,395.681,404.534,404.194z"/>
	<path fill="#FFFFFF" d="M142.208,328.789c-34.112,0-61.763,27.652-61.763,61.764c0,34.112,27.651,61.765,61.763,61.765
		s61.763-27.651,61.763-61.765C203.972,356.441,176.32,328.789,142.208,328.789z M142.213,411.141
		c-11.368,0-20.588-9.222-20.588-20.588c0-11.368,9.22-20.588,20.588-20.588c11.37,0,20.588,9.22,20.588,20.588
		C162.801,401.919,153.583,411.141,142.213,411.141z"/>
	<path fill="#FFFFFF" d="M265.521,316.359c-27.127,0-49.119-21.992-49.119-49.119c0-0.084,0.006-0.166,0.006-0.249
		c-21.675-13.045-47.06-20.553-74.2-20.553c-79.592,0-144.114,64.522-144.114,144.114c0,79.59,64.522,144.114,144.114,144.114
		c79.589,0,144.114-64.524,144.114-144.114c0-27.141-7.508-52.523-20.552-74.199C265.688,316.354,265.605,316.359,265.521,316.359z
		 M142.208,493.492c-56.853,0-102.938-46.086-102.938-102.939c0-56.853,46.085-102.938,102.938-102.938
		c56.848,0,102.939,46.085,102.939,102.938C245.147,447.406,199.057,493.492,142.208,493.492z"/>
	
		<linearGradient id="SVGID_2_" gradientUnits="userSpaceOnUse" x1="-137.1455" y1="383.7354" x2="41.7295" y2="539.2291" gradientTransform="matrix(1 0 0 -1 219 849.7832)">
		<stop  offset="0.4781" style="stop-color:#FFFFFF"/>
		<stop  offset="0.537" style="stop-color:#EAEAEA"/>
		<stop  offset="0.6591" style="stop-color:#B3B3B3"/>
		<stop  offset="0.832" style="stop-color:#5B5B5B"/>
		<stop  offset="1" style="stop-color:#000000"/>
	</linearGradient>
	<path fill="url(#SVGID_2_)" d="M265.771,316.354c-0.083,0-0.165,0.007-0.249,0.007c-27.127,0-49.119-21.992-49.119-49.119
		c0-0.084,0.006-0.166,0.006-0.249c-21.675-13.045-47.31-20.553-74.45-20.553c-0.07,0,0.542,0.003-0.458,0.003v41.176
		c1,0,0.389-0.003,0.458-0.003c56.848,0,103.064,46.085,103.064,102.938c0,56.854-46.278,102.939-103.126,102.939
		c-0.07,0,0.604-0.003-0.396-0.003v41.175c1,0,0.389,0.003,0.458,0.003c79.589,0,144.239-64.524,144.239-144.114
		C286.197,363.412,278.814,338.028,265.771,316.354z"/>
	
		<linearGradient id="SVGID_3_" gradientUnits="userSpaceOnUse" x1="72.978" y1="352.7593" x2="269.5508" y2="563.5576" gradientTransform="matrix(1 0 0 -1 219 849.7832)">
		<stop  offset="0.473" style="stop-color:#FFFFFF"/>
		<stop  offset="0.5214" style="stop-color:#F1F1F1"/>
		<stop  offset="0.6132" style="stop-color:#CCCCCC"/>
		<stop  offset="0.7385" style="stop-color:#909090"/>
		<stop  offset="0.8908" style="stop-color:#3F3F3F"/>
		<stop  offset="1" style="stop-color:#000000"/>
	</linearGradient>
	<path fill="url(#SVGID_3_)" d="M484.631,282.638c-48.368-42.811-117.469-47.219-169.991-15.506c0,0.036,0.003,0.072,0.003,0.108
		c0,27.119-21.979,49.104-49.097,49.118c-35.146,58.384-24.81,135.32,28.052,182.108c59.599,52.75,150.679,47.201,203.432-12.398
		C549.779,426.472,544.229,335.389,484.631,282.638z M466.197,458.779c-37.683,42.57-102.736,46.536-145.309,8.854
		c-42.572-37.682-46.537-102.735-8.855-145.308c37.678-42.568,102.734-46.537,145.307-8.856
		C499.912,351.152,503.875,416.211,466.197,458.779z"/>
	
		<linearGradient id="SVGID_4_" gradientUnits="userSpaceOnUse" x1="256.8477" y1="820.9971" x2="83.8264" y2="591.3901" gradientTransform="matrix(1 0 0 -1 219 849.7832)">
		<stop  offset="0.473" style="stop-color:#FFFFFF"/>
		<stop  offset="0.4789" style="stop-color:#FBFBFB"/>
		<stop  offset="0.6295" style="stop-color:#A3A3A3"/>
		<stop  offset="0.7619" style="stop-color:#5D5D5D"/>
		<stop  offset="0.8715" style="stop-color:#2B2B2B"/>
		<stop  offset="0.954" style="stop-color:#0C0C0C"/>
		<stop  offset="1" style="stop-color:#000000"/>
	</linearGradient>
	<path fill="url(#SVGID_4_)" d="M484.19,35.583C424.378-16.924,333.32-11.004,280.811,48.811
		c-42.412,48.312-46.694,117.008-15.255,169.31c27.113,0.019,49.086,22.003,49.086,49.12c0,0.018-0.002,0.035-0.002,0.054
		c58.623,35.469,135.998,24.953,182.777-28.333C549.927,179.146,544.005,88.091,484.19,35.583z M466.474,211.797
		c-37.505,42.722-102.543,46.955-145.27,9.449c-42.726-37.508-46.953-102.549-9.449-145.271
		c37.508-42.725,102.546-46.956,145.271-9.449C499.751,104.034,503.98,169.072,466.474,211.797z"/>
	<circle fill="#FFFFFF" cx="265.617" cy="267.334" r="20.846"/>
	<g>
		<path fill="#FFFFFF" d="M142.076,287.983c-0.029,0-0.059,0.001-0.087,0.001C142.024,287.984,142.069,287.984,142.076,287.983z"/>
		<path fill="#FFFFFF" d="M463.881,267.492c42.29-24.988,69.637-70.931,69.637-123.686c0-0.076-41.178-0.315-41.178-0.315
			c-0.104,56.759-45.723,102.15-102.512,102.15c-0.149,0-0.884,0-0.922,0c-55.447,0-100.453-43.274-102.641-98.193
			c0.036-1.317,0.057-2.438,0.057-3.762c0-79.592-64.774-144.015-144.364-144.015c-0.07,0,0.542,0.047-0.458,0.047v41.23
			c0.297,0.021,0.416-0.041,0.484-0.041c56.552,0,102.675,45.733,103.152,101.733h-0.13c0,1-0.006,0.696-0.006,0.846
			c0,1.398,0.025,2.88,0.064,4.269c-1.997,52.771-43.713,95.408-96.111,98.799c-2.229-0.103-4.72-0.139-6.975-0.139
			c-0.076,0,0.521,0.025-0.479,0.025v0.007C62.234,246.83-1.906,311.197-1.906,390.552H39.27
			c0-56.615,45.704-102.545,102.229-102.928v0.358c0.486,0,0.589,0,0.577,0.001c2.18-0.002,4.458-0.062,6.611-0.159
			c0.077,0.005,0.153,0.01,0.229,0.015c19.187,1.254,36.947,7.741,51.85,18.053c0.084,0.059,0.168,0.117,0.252,0.175
			c0.529,0.368,1.053,0.743,1.575,1.121c0.166,0.12,0.332,0.241,0.497,0.362c0.444,0.325,0.884,0.655,1.322,0.987
			c0.244,0.186,0.488,0.372,0.73,0.56c0.36,0.278,0.718,0.558,1.074,0.841c0.321,0.256,0.641,0.513,0.958,0.772
			c0.278,0.226,0.556,0.453,0.832,0.683c0.398,0.331,0.793,0.666,1.187,1.003c0.193,0.166,0.387,0.331,0.579,0.498
			c0.481,0.419,0.958,0.842,1.431,1.27c0.104,0.094,0.208,0.188,0.312,0.282c0.572,0.521,1.139,1.048,1.699,1.582
			c0.005,0.005,0.011,0.01,0.016,0.016c11.311,10.785,20.17,24.119,25.655,39.081c0.009,0.024,0.018,0.049,0.027,0.073
			c0.259,0.708,0.508,1.419,0.751,2.134c0.046,0.136,0.093,0.272,0.138,0.409c0.2,0.594,0.393,1.191,0.582,1.791
			c0.08,0.253,0.16,0.507,0.238,0.762c0.144,0.468,0.282,0.938,0.419,1.408c0.113,0.388,0.226,0.777,0.334,1.167
			c0.089,0.32,0.174,0.642,0.261,0.963c0.145,0.542,0.288,1.083,0.424,1.628c0.037,0.147,0.071,0.295,0.108,0.442
			c1.917,7.839,2.936,16.032,2.936,24.468c0,0.147,0.058,0.271,0.057,0.271h41.175c0.001,0,0.006-0.118,0.006-0.268
			c0-27.146-7.519-52.436-20.566-74.111c-0.085,0.001-0.169,0.052-0.255,0.052c-27.123,0-49.112-21.963-49.119-49.084
			c0-0.08,0.006-0.158,0.006-0.237c0,0,0,0,0,0c0.122-27.025,22.062-48.885,49.113-48.885c27.117,0,49.102,21.8,49.12,48.915
			c21.683,13.119,47.075,20.619,74.28,20.619c0.038,0,0.078,0,0.078,0s0.04,0.18,0.116,0.18
			c56.849,0,102.978,46.221,102.978,103.074c0,0.149-0.016,1.062-0.016,1.062c-0.645,56.292-46.955,101.348-103.409,101.348
			c-0.149,0-0.169,0.019-1.169,0.018v41.176c1,0,1.02,0.006,1.169,0.006c79.526,0,144.368-64.001,144.472-143.502
			c0,0,0.065-0.268,0.065-0.191C533.088,338.358,505.814,292.639,463.881,267.492z"/>
		<path fill="#FFFFFF" d="M141.989,287.984c-0.027,0-0.048,0-0.032,0C141.968,287.985,141.979,287.984,141.989,287.984z"/>
	</g>
</g>
</svg>
